<?xml version="1.0" encoding="UTF-8"?>
<svg id="Calque_1" xmlns="http://www.w3.org/2000/svg" version="1.1" viewBox="0 0 1920 200">
  <!-- Generator: Adobe Illustrator 30.7.0, SVG Export Plug-In . SVG Version: 2.1.4 Build 114)  -->
  <defs>
    <style>
      .st0 {
        fill: #de3228;
      }

      .st1 {
        fill: #f9b004;
      }
    </style>
  </defs>
  <path class="st0" d="M11.15,112.89c57.26-14.41,116.22-23.38,175.21-26.42,76.1-4.08,152.9,1.83,227.53,17.25,20.65,4.16,41.16,7.98,61.94,11.03,45.57,6.95,91.65,11.15,137.72,12.77,67.12,2.37,134.46-.7,201.52-7.97-82.93,15.28-168.12,20.43-252.49,15.7-33.82-2.04-67.56-5.49-101.04-10.72-33.36-5.05-66.2-12.99-99.45-18.09-116.31-18.14-235.17-14.09-350.93,6.46h0Z"/>
  <path class="st0" d="M1116.99,112.89c57.26-14.41,116.22-23.38,175.21-26.42,76.1-4.08,152.9,1.83,227.53,17.25,20.65,4.16,41.16,7.98,61.94,11.03,45.57,6.95,91.65,11.15,137.72,12.77,67.12,2.37,134.46-.7,201.52-7.97-82.93,15.28-168.12,20.43-252.49,15.7-33.82-2.04-67.56-5.49-101.04-10.72-33.36-5.05-66.2-12.99-99.45-18.09-116.31-18.14-235.17-14.09-350.93,6.46h0Z"/>
  <g>
    <path class="st0" d="M966.01,151.32c-19.85,0-39.7,0-59.56,0-4.66,0-7.42-2.2-8.12-6.19-.27-1.52.16-2.34,1.5-3.06,3.32-1.8,6.41-3.94,9.39-6.26,8.19-6.37,11.84-14.96,12.71-25.04.68-7.79.11-15.63,1.23-23.4,1.25-8.63,3.19-17.01,7.81-24.55,4.28-6.98,10.2-11.98,17.94-14.7,1.6-.56,2.09-1.36,1.97-2.94-.38-4.91.83-9.35,4.49-12.83,4.51-4.29,9.86-5.66,15.74-3.5,5.89,2.17,9.74,6.51,9.86,12.88.08,4.29,1.52,6.24,5.51,7.89,10.19,4.23,16.06,12.55,19.33,22.81,2.94,9.22,3.91,18.72,3.89,28.36-.01,5.2.35,10.36,1.54,15.43,2.74,11.7,9.94,19.87,20.27,25.55,2.67,1.47,2.9,2,1.88,4.87-1.02,2.88-3.67,4.66-7.19,4.67-10.6.03-21.2,0-31.8,0-9.46,0-18.93,0-28.39,0ZM966.03,36.51c-3.61,0-6.36,2.74-6.33,6.32.03,3.43,2.81,6.25,6.22,6.31,3.51.06,6.39-2.77,6.41-6.3.02-3.63-2.66-6.33-6.29-6.33Z"/>
    <path class="st1" d="M875.28,91.64c.07-13.02,4.39-24.44,12.92-34.29.89-1.03,1.82-2.03,3.27-2.2,2.06-.25,3.87.22,4.92,2.18,1.04,1.94.86,3.89-.58,5.55-1.59,1.83-3.11,3.7-4.41,5.74-10.05,15.75-8.89,35.57,2.94,50.07.9,1.1,1.9,2.14,2.14,3.62.3,1.85-.81,3.94-2.49,4.78-2.04,1.01-4.01.74-5.63-1.01-4-4.32-6.99-9.3-9.24-14.72-2.61-6.3-3.97-12.86-3.84-19.72Z"/>
    <path class="st1" d="M1056.74,90.28c.07,14.08-4.17,25.17-12.2,34.9-1.45,1.76-3.11,2.91-5.53,2.28-2.81-.74-4.26-3.78-2.97-6.37.41-.81,1.01-1.54,1.59-2.25,13.33-16.21,13.09-39.13-.58-55.04-.83-.96-1.75-1.88-1.96-3.23-.32-2.16.6-4.12,2.39-5.03,1.94-.99,4.23-.57,5.82,1.19,4.84,5.33,8.47,11.39,10.76,18.23,1.81,5.42,2.93,10.96,2.67,15.32Z"/>
    <path class="st0" d="M966.12,155.82c7.4,0,14.79,0,22.19,0,2.18,0,2.31.18,1.22,2.13-5.13,9.24-13.07,14.23-23.58,14.21-10.52-.03-18.38-5.12-23.52-14.33-.87-1.57-.51-2.05,1.29-2.03,7.47.07,14.94.03,22.4.03Z"/>
    <path class="st1" d="M891.95,94.6c.02-11.05,2.6-18.18,7.6-24.45,1.78-2.22,3.68-2.8,5.78-1.97,3.08,1.23,3.93,4.73,1.73,7.56-2.9,3.71-4.84,7.79-5.47,12.5-.94,7.06.9,13.31,5.16,18.95,2.31,3.07,1.25,6.6-2.22,7.65-2.2.67-3.88-.26-5.2-1.95-4.86-6.27-7.4-13.34-7.37-18.29Z"/>
    <path class="st1" d="M1040.06,91.73c.05,7.96-2.53,15.02-7.41,21.27-1.22,1.56-2.82,2.41-4.85,1.95-1.88-.43-3.1-1.65-3.61-3.53-.46-1.68.19-3.05,1.19-4.34,2.75-3.54,4.45-7.52,5.08-11.98,1-7.07-.85-13.34-5.16-18.93-.94-1.22-1.71-2.48-1.54-4.06.21-1.93,1.25-3.34,3.1-3.96,2.01-.68,3.79-.19,5.18,1.45,3.96,4.64,6.39,10,7.54,15.98.39,2.04.46,4.08.47,6.15Z"/>
  </g>
</svg>